<svg width="650" height="800" viewBox="0 0 650 800" fill="none" xmlns="http://www.w3.org/2000/svg">
<path d="M600.102 149.951L524.277 800H125.803L49.9029 149.951H600.102Z" fill="#E4E7E7"/>
<path d="M119.978 750.15L125.803 799.997H524.277L530.077 750.15H119.978Z" fill="#C8CBCB"/>
<path d="M52.8276 174.999L112.451 685.747L596.777 178.349L597.2 174.999H52.8276Z" fill="#C8CBCB"/>
<path d="M50.0022 75.0003H600C627.625 75.0003 649.999 97.3995 649.999 125V174.999H0.00292969V125C0.00292969 97.3746 22.402 75.0003 50.0022 75.0003Z" fill="#2B414D"/>
<path d="M125.003 0H525.003C552.628 0 575.002 22.3991 575.002 49.9993V75.0003H75.0033V49.9993C75.0033 22.3743 97.4024 0 125.003 0Z" fill="#475F6C"/>
<path d="M468.439 353.557C467.121 351.116 463.936 350.128 461.311 351.353L451.898 355.733C443.069 341.752 425.815 332 406.595 332H406.325C383.663 332.11 373.282 342.109 365.711 349.419C364.384 350.704 363.121 351.916 361.902 352.976C355.28 358.723 348.256 366.45 344.786 370.396L250.061 347.398C248.493 346.969 246.753 347.197 245.371 348.093C243.523 349.3 242.668 351.477 243.248 353.511L243.42 354.106L261.854 384.962L193.821 384.514H193.767C191.604 384.514 189.618 385.693 188.704 387.527C187.78 389.378 188.104 391.555 189.53 393.105L189.716 393.306L256.274 451.635L181.724 515.236C179.561 517.079 179.413 520.206 181.394 522.218C182.441 523.278 183.877 523.818 185.312 523.818C186.59 523.818 187.878 523.388 188.9 522.519L271.867 451.74L206.562 394.481L336.463 395.354L348.693 381.702C348.728 381.666 348.752 381.615 348.787 381.57L350.94 379.027C351.038 378.913 360.673 367.561 369.152 360.2C370.578 358.966 371.93 357.653 373.365 356.277C380.321 349.57 388.201 341.967 406.379 341.88H406.595C428.499 341.88 447.208 357.521 447.493 376.124C447.896 402.592 426.489 413.418 425.599 413.857L422.63 415.283L422.728 418.392C422.733 418.566 423.19 435.83 415.532 455.828C405.356 482.396 386.401 500.597 359.198 509.928C329.547 520.11 302.334 519.621 278.311 508.474C260.286 500.112 250.833 488.536 250.749 488.426L247.333 484.133L215.268 510.047C213.056 511.835 212.82 514.957 214.742 517.019C216.664 519.077 220.021 519.296 222.238 517.509L245.937 498.352C250.612 502.997 259.676 510.783 273.076 517.088C284.102 522.268 299.434 527 318.669 527C331.666 527 346.442 524.842 362.88 519.2C392.748 508.95 414.421 488.179 425.545 459.138C432.033 442.176 433.164 427.171 433.341 421.021C440.518 416.586 458.534 402.77 458.121 375.978C458.062 372.119 457.388 368.37 456.204 364.781L466.074 360.186C468.689 358.97 469.756 355.998 468.439 353.557ZM331.513 385.442L274.069 385.044L258.963 359.779L337.442 378.822L331.513 385.442Z" fill="#B85A23"/>
<path d="M425.923 370.089C429.794 370.089 432.933 367.17 432.933 363.57C432.933 359.969 429.794 357.05 425.923 357.05C422.051 357.05 418.913 359.969 418.913 363.57C418.913 367.17 422.051 370.089 425.923 370.089Z" fill="#B85A23"/>
</svg>
